<?xml version="1.0" encoding="utf-8"?>
<!-- Generator: Adobe Illustrator 23.0.4, SVG Export Plug-In . SVG Version: 6.00 Build 0)  -->
<svg version="1.1" id="Layer_1" xmlns="http://www.w3.org/2000/svg" xmlns:xlink="http://www.w3.org/1999/xlink" x="0px" y="0px"
	 viewBox="0 0 227.6 277.1" style="enable-background:new 0 0 227.6 277.1;" xml:space="preserve">
<style type="text/css">
	.st0{clip-path:url(#SVGID_2_);}
	.st1{clip-path:url(#SVGID_4_);enable-background:new    ;}
	.st2{clip-path:url(#SVGID_6_);}
	.st3{clip-path:url(#SVGID_8_);}
	.st4{clip-path:url(#SVGID_10_);fill:#D8531E;}
	.st5{clip-path:url(#SVGID_12_);}
	.st6{clip-path:url(#SVGID_14_);fill:#FEFEFE;}
	.st7{clip-path:url(#SVGID_16_);}
	.st8{clip-path:url(#SVGID_18_);fill:#D8531E;}
	.st9{clip-path:url(#SVGID_20_);}
	.st10{clip-path:url(#SVGID_22_);fill:#FEFEFE;}
	.st11{clip-path:url(#SVGID_24_);}
	.st12{clip-path:url(#SVGID_26_);fill:#FEFEFE;}
	.st13{clip-path:url(#SVGID_28_);}
	.st14{clip-path:url(#SVGID_30_);fill:#FEFEFE;}
	.st15{clip-path:url(#SVGID_32_);}
	.st16{clip-path:url(#SVGID_34_);fill:#FEFEFE;}
	.st17{clip-path:url(#SVGID_36_);}
	.st18{clip-path:url(#SVGID_38_);fill:#FEFEFE;}
	.st19{clip-path:url(#SVGID_40_);}
	.st20{clip-path:url(#SVGID_42_);fill:#FEFEFE;}
	.st21{clip-path:url(#SVGID_44_);}
	.st22{clip-path:url(#SVGID_46_);fill:#FEFEFE;}
	.st23{clip-path:url(#SVGID_48_);}
	.st24{clip-path:url(#SVGID_50_);fill:#FEFEFE;}
	.st25{clip-path:url(#SVGID_52_);}
	.st26{clip-path:url(#SVGID_54_);fill:#FEFEFE;}
	.st27{clip-path:url(#SVGID_56_);}
	.st28{clip-path:url(#SVGID_58_);fill:#FEFEFE;}
	.st29{clip-path:url(#SVGID_60_);}
	.st30{clip-path:url(#SVGID_62_);fill:#FEFEFE;}
	.st31{clip-path:url(#SVGID_64_);}
	.st32{clip-path:url(#SVGID_66_);fill:#FEFEFE;}
	.st33{clip-path:url(#SVGID_68_);}
	.st34{clip-path:url(#SVGID_70_);fill:#FEFEFE;}
	.st35{clip-path:url(#SVGID_72_);}
	.st36{clip-path:url(#SVGID_74_);fill:#FEFEFE;}
	.st37{clip-path:url(#SVGID_76_);}
	.st38{clip-path:url(#SVGID_78_);fill:#FEFEFE;}
	.st39{clip-path:url(#SVGID_80_);}
	.st40{clip-path:url(#SVGID_82_);fill:#FEFEFE;}
	.st41{clip-path:url(#SVGID_84_);}
	.st42{clip-path:url(#SVGID_86_);fill:#FEFEFE;}
	.st43{clip-path:url(#SVGID_88_);}
	.st44{clip-path:url(#SVGID_90_);fill:#FEFEFE;}
	.st45{clip-path:url(#SVGID_92_);}
	.st46{clip-path:url(#SVGID_94_);fill:#FEFEFE;}
	.st47{clip-path:url(#SVGID_96_);}
	.st48{clip-path:url(#SVGID_98_);fill:#FEFEFE;}
	.st49{clip-path:url(#SVGID_100_);}
	.st50{clip-path:url(#SVGID_102_);fill:#FEFEFE;}
	.st51{clip-path:url(#SVGID_104_);}
	.st52{clip-path:url(#SVGID_106_);fill:#FEFEFE;}
</style>
<g>
	<defs>
		<rect id="SVGID_1_" x="7" y="4.4" width="212.7" height="268.3"/>
	</defs>
	<clipPath id="SVGID_2_">
		<use xlink:href="#SVGID_1_"  style="overflow:visible;"/>
	</clipPath>
	<g class="st0">
		<defs>
			<rect id="SVGID_3_" x="-458" y="-320.2" width="2000" height="3131"/>
		</defs>
		<clipPath id="SVGID_4_">
			<use xlink:href="#SVGID_3_"  style="overflow:visible;"/>
		</clipPath>
		<g class="st1">
			<g>
				<defs>
					<rect id="SVGID_5_" x="7" y="3.8" width="213" height="269"/>
				</defs>
				<clipPath id="SVGID_6_">
					<use xlink:href="#SVGID_5_"  style="overflow:visible;"/>
				</clipPath>
				<g class="st2">
					<defs>
						<path id="SVGID_7_" d="M112.6,272.7C54,272.3,6.7,224.6,7,166.4l0.4-57.1C7.8,51.1,55.7,4,114.2,4.4
							c58.5,0.4,105.9,48,105.5,106.2l-0.4,57.1C219,226,171.1,273,112.6,272.7"/>
					</defs>
					<clipPath id="SVGID_8_">
						<use xlink:href="#SVGID_7_"  style="overflow:visible;"/>
					</clipPath>
					<g class="st3">
						<defs>
							<rect id="SVGID_9_" x="7" y="3.8" width="213" height="269"/>
						</defs>
						<clipPath id="SVGID_10_">
							<use xlink:href="#SVGID_9_"  style="overflow:visible;"/>
						</clipPath>
						<rect x="2" y="-0.6" class="st4" width="222.7" height="278.3"/>
					</g>
				</g>
			</g>
		</g>
	</g>
</g>
<g>
	<defs>
		<path id="SVGID_11_" d="M112.6,266.2c-55.7-0.4-100.8-45.7-100.4-101.1l0.3-54.3c0.3-55.4,46-100.2,101.7-99.9
			C169.9,11.2,215,56.6,214.6,112l-0.3,54.3C214,221.7,168.3,266.5,112.6,266.2"/>
	</defs>
	<clipPath id="SVGID_12_">
		<use xlink:href="#SVGID_11_"  style="overflow:visible;"/>
	</clipPath>
	<g class="st5">
		<defs>
			<rect id="SVGID_13_" x="-458" y="-320.2" width="2000" height="3131"/>
		</defs>
		<clipPath id="SVGID_14_">
			<use xlink:href="#SVGID_13_"  style="overflow:visible;"/>
		</clipPath>
		<rect x="7.2" y="5.9" class="st6" width="212.5" height="265.4"/>
	</g>
</g>
<g>
	<defs>
		<path id="SVGID_15_" d="M114.2,13.4c-54.3-0.3-98.7,43.3-99.1,97.3l-0.3,54.3c-0.3,54,43.6,98.2,97.9,98.5
			c54.3,0.3,98.7-43.3,99.1-97.3L212,112C212.4,58,168.5,13.8,114.2,13.4"/>
	</defs>
	<clipPath id="SVGID_16_">
		<use xlink:href="#SVGID_15_"  style="overflow:visible;"/>
	</clipPath>
	<g class="st7">
		<defs>
			<rect id="SVGID_17_" x="-458" y="-320.2" width="2000" height="3131"/>
		</defs>
		<clipPath id="SVGID_18_">
			<use xlink:href="#SVGID_17_"  style="overflow:visible;"/>
		</clipPath>
		<rect x="9.8" y="8.4" class="st8" width="207.3" height="260.2"/>
	</g>
</g>
<g>
	<defs>
		<path id="SVGID_19_" d="M113.1,223.8c-33.1-0.2-59.8-27.1-59.6-60l0.3-53.9C54,77,81.1,50.4,114.1,50.6
			c33.1,0.2,59.8,27.1,59.6,60l-0.3,53.9C173.2,197.4,146.1,224,113.1,223.8 M114.1,53.2C82.5,53,56.6,78.4,56.4,109.9L56,163.8
			c-0.2,31.5,25.4,57.2,57,57.4c31.6,0.2,57.5-25.2,57.7-56.7l0.3-53.9C171.4,79.1,145.8,53.4,114.1,53.2"/>
	</defs>
	<clipPath id="SVGID_20_">
		<use xlink:href="#SVGID_19_"  style="overflow:visible;"/>
	</clipPath>
	<g class="st9">
		<defs>
			<rect id="SVGID_21_" x="-458" y="-320.2" width="2000" height="3131"/>
		</defs>
		<clipPath id="SVGID_22_">
			<use xlink:href="#SVGID_21_"  style="overflow:visible;"/>
		</clipPath>
		<rect x="48.4" y="45.6" class="st10" width="130.3" height="183.2"/>
	</g>
</g>
<g>
	<defs>
		<path id="SVGID_23_" d="M35,105.5c-0.8-0.6-1.9-0.9-3.2-0.9c-1.4,0-2.6,0.3-3.6,1c-1.1,0.7-1.9,1.6-2.3,2.8
			c-0.5,1.1-0.7,3.1-0.7,6l0,5.8l20.5,0l0-4.9l-7.8,0l0-2.6l7.8-3.2l0-4.9l-8.8,3.6C36.4,106.9,35.7,106.1,35,105.5z M33.8,115.3
			l-4.2,0l0-2.5c0-1.1,0.2-1.9,0.6-2.4c0.4-0.4,0.8-0.7,1.4-0.7c0.6,0,1,0.2,1.4,0.6c0.6,0.7,0.8,1.5,0.8,2.5L33.8,115.3z
			 M41.9,78.3c-2.4-0.7-4.5-1-6.2-0.7c-1.8,0.3-3.3,1.1-4.6,2.3c-1,0.9-1.8,2.3-2.3,4.2c-0.4,1.1-0.5,2.2-0.4,3.3
			c0.1,1.1,0.4,2.1,1,3.1c0.5,1,1.2,1.8,2,2.4c1.4,1.1,3,2,5,2.6c1.6,0.5,3.1,0.7,4.4,0.8c1.4,0,2.7-0.3,3.9-0.8
			c2.2-1.1,3.8-2.9,4.6-5.5c0.8-2.5,0.6-4.9-0.6-7C47.4,80.9,45.1,79.3,41.9,78.3z M45,88.6c-0.4,1.1-1.1,1.9-2.2,2.4
			c-0.5,0.2-1,0.3-1.7,0.3c-0.9,0-2-0.2-3.2-0.6c-2.2-0.7-3.6-1.5-4.3-2.6c-0.7-1-0.8-2-0.5-3.1c0.3-1,0.9-1.7,1.8-2.2
			c0.5-0.3,1.2-0.4,2-0.4c1,0,2.1,0.2,3.4,0.6c2.1,0.7,3.5,1.5,4.2,2.5C45.2,86.5,45.3,87.5,45,88.6z M60.5,58.4L60.2,58l-3.8,2.7
			l0.3,0.4c0.5,0.8,0.8,1.6,0.9,2.3c0.1,1-0.2,1.9-0.7,2.6c-0.4,0.5-0.9,0.8-1.5,0.9c-0.7,0.2-1.4,0.1-2.4-0.2c-1-0.3-1.9-0.9-3-1.7
			c-1.6-1.2-2.7-2.5-3.2-3.8c-0.5-1.2-0.4-2.3,0.3-3.2c0.5-0.6,1.1-1,1.8-1.2c0.7-0.2,1.5,0,2.4,0.4l0.5,0.2l1.8-4.4l-0.5-0.2
			c-1-0.4-2-0.6-2.9-0.6c-1.2,0-2.4,0.3-3.5,0.9c-1.1,0.6-2,1.3-2.8,2.3c-1,1.3-1.6,2.7-1.8,4.4c-0.2,1.7,0.1,3.4,1,5
			c0.9,1.6,2.2,3.1,3.9,4.4c1.7,1.3,3.3,2.1,5,2.5c0.6,0.1,1.2,0.2,1.8,0.2c1.1,0,2.1-0.2,3.1-0.6c1.5-0.6,2.7-1.6,3.7-2.8
			c0.9-1.2,1.5-2.4,1.7-3.7c0.2-1.3,0.1-2.6-0.4-3.8C61.7,60.2,61.2,59.3,60.5,58.4z M74,31l-4.7,3l-1.2,9.8l-4.1-6.4L60,39.9
			l11,17.2l4.1-2.6l-3.2-4.9l0.4-3.7l8.8,4.8l4.2-2.6l-12.4-6.8L74,31z M95.6,40.5l-1-4.4l5.5-1.3L99.1,31l-5.5,1.3l-0.7-3.1l9-2.1
			l-1-4.3L87.1,26l4.7,19.9l13.7-3.2l-1-4.3L95.6,40.5z M113.6,42.3l4.9,0.4l0.6-7.6l4.7,0.3L124,31l-4.7-0.3l0.3-4l8.1,0.6l0.3-4.4
			l-13-0.9L113.6,42.3z M151.3,35l1.6-4.1l-13.1-5.2l-7.6,18.9l13.1,5.2l1.6-4.1l-8.6-3.4l1.7-4.2l5.2,2.1l1.5-3.6l-5.2-2.1l1.2-3
			L151.3,35z M169,41.4l-3.8-3l-13,15.8l10,8.1l2.8-3.4l-6.2-5.1L169,41.4z M173.2,68.9l13.3-9l-2.7-4l-16.9,11.5l7.3,10.6l3.6-2.5
			L173.2,68.9z M182.7,87.8l4.3-1.3l1.6,5.4l3.8-1.1l-1.6-5.4l3.1-0.9l2.7,8.8l4.2-1.3l-4.1-13.4l-19.6,5.9l4.1,13.4l4.2-1.3
			L182.7,87.8z M181.8,105.3l0,4.9l7.8,0l0,2.6l-7.8,3.2l0,4.9l8.8-3.6c0.5,1.2,1.2,2,1.9,2.6c0.8,0.6,1.9,0.9,3.2,0.9
			c1.4,0,2.6-0.3,3.6-1c1.1-0.7,1.8-1.6,2.3-2.8c0.5-1.1,0.7-3.1,0.7-6l0-5.7L181.8,105.3z M197.9,112.7c0,1.1-0.2,2-0.6,2.4
			c-0.4,0.4-0.8,0.7-1.4,0.7c-0.6,0-1-0.2-1.4-0.6c-0.6-0.7-0.8-1.5-0.8-2.5l0-2.5l4.2,0L197.9,112.7z"/>
	</defs>
	<clipPath id="SVGID_24_">
		<use xlink:href="#SVGID_23_"  style="overflow:visible;"/>
	</clipPath>
	<g class="st11">
		<defs>
			<rect id="SVGID_25_" x="-458" y="-320.2" width="2000" height="3131"/>
		</defs>
		<clipPath id="SVGID_26_">
			<use xlink:href="#SVGID_25_"  style="overflow:visible;"/>
		</clipPath>
		<rect x="20.2" y="17" class="st12" width="187.2" height="108.9"/>
	</g>
</g>
<g>
	<defs>
		<path id="SVGID_27_" d="M44.2,145.4l0,3l-19.3,6l0-1.9l6-1.9l0.1-7.8l-6-2l0-1.9L44.2,145.4z M42.9,146.8l-10.1-3.4l0,6.5
			L42.9,146.8z"/>
	</defs>
	<clipPath id="SVGID_28_">
		<use xlink:href="#SVGID_27_"  style="overflow:visible;"/>
	</clipPath>
	<g class="st13">
		<defs>
			<rect id="SVGID_29_" x="-458" y="-320.2" width="2000" height="3131"/>
		</defs>
		<clipPath id="SVGID_30_">
			<use xlink:href="#SVGID_29_"  style="overflow:visible;"/>
		</clipPath>
		<rect x="19.8" y="134" class="st14" width="29.3" height="25.4"/>
	</g>
</g>
<g>
	<defs>
		<path id="SVGID_31_" d="M43.8,164.5l0.5,5.9c0.2,1.7,0.1,3-0.2,4.1c-0.3,1.1-0.8,1.9-1.6,2.6c-0.8,0.7-1.7,1-2.7,1.1
			c-1.1,0.1-2.1-0.2-3-0.8c-0.9-0.6-1.7-1.6-2.2-3l-8.7,5.5l-0.2-2l8.3-5.3l-0.5-5.3l-8.7,0.8l-0.2-1.8L43.8,164.5z M42.3,166.5
			l-7.2,0.7l0.4,4.1c0.1,1,0.3,2,0.8,2.9c0.3,0.7,0.8,1.2,1.4,1.5c0.6,0.3,1.3,0.5,2,0.4c1-0.1,1.8-0.5,2.4-1.4
			c0.6-0.8,0.8-2,0.7-3.4L42.3,166.5z"/>
	</defs>
	<clipPath id="SVGID_32_">
		<use xlink:href="#SVGID_31_"  style="overflow:visible;"/>
	</clipPath>
	<g class="st15">
		<defs>
			<rect id="SVGID_33_" x="-458" y="-320.2" width="2000" height="3131"/>
		</defs>
		<clipPath id="SVGID_34_">
			<use xlink:href="#SVGID_33_"  style="overflow:visible;"/>
		</clipPath>
		<rect x="19.6" y="159.5" class="st16" width="29.8" height="25.4"/>
	</g>
</g>
<g>
	<defs>
		<path id="SVGID_35_" d="M39.9,203c-1.3,0.2-2.3,0.1-3.3-0.1c-1.2-0.3-2.3-0.8-3.2-1.6c-0.9-0.8-1.6-1.7-2-2.8
			c-0.5-1.3-0.7-2.7-0.4-4.1c0.3-1.4,1-2.7,2.1-3.9c1.1-1.2,2.7-2.2,4.6-3c1.7-0.7,3.4-1.1,5.1-1.1c1.7,0,3.2,0.4,4.4,1.1
			c1.2,0.8,2.1,1.9,2.6,3.2c0.5,1.2,0.7,2.3,0.6,3.4c-0.1,1.1-0.5,2.1-1.1,3.2c-0.5,0.8-1.2,1.5-2.2,2.3l-1.1-1.7
			c1.2-0.9,2-2,2.4-3.1c0.3-1.1,0.3-2.2-0.2-3.2c-0.6-1.5-1.7-2.4-3.2-2.9c-1.8-0.6-4-0.3-6.5,0.7c-2.6,1.1-4.4,2.5-5.3,4.2
			c-0.8,1.4-0.9,2.9-0.3,4.3c0.4,0.9,0.9,1.6,1.6,2.1c0.7,0.5,1.5,0.9,2.4,1c0.6,0.1,1.4,0.1,2.4-0.1L39.9,203z"/>
	</defs>
	<clipPath id="SVGID_36_">
		<use xlink:href="#SVGID_35_"  style="overflow:visible;"/>
	</clipPath>
	<g class="st17">
		<defs>
			<rect id="SVGID_37_" x="-458" y="-320.2" width="2000" height="3131"/>
		</defs>
		<clipPath id="SVGID_38_">
			<use xlink:href="#SVGID_37_"  style="overflow:visible;"/>
		</clipPath>
		<rect x="25.8" y="181.5" class="st18" width="29.6" height="26.6"/>
	</g>
</g>
<g>
	<defs>
		<polygon id="SVGID_39_" points="55.5,202.7 56.7,204.1 50.4,209.3 56.9,217.1 63.2,212 64.4,213.4 49.5,225.6 48.4,224.2 
			55.5,218.4 49,210.5 41.8,216.4 40.7,214.9 		"/>
	</defs>
	<clipPath id="SVGID_40_">
		<use xlink:href="#SVGID_39_"  style="overflow:visible;"/>
	</clipPath>
	<g class="st19">
		<defs>
			<rect id="SVGID_41_" x="-458" y="-320.2" width="2000" height="3131"/>
		</defs>
		<clipPath id="SVGID_42_">
			<use xlink:href="#SVGID_41_"  style="overflow:visible;"/>
		</clipPath>
		<rect x="35.7" y="197.7" class="st20" width="33.8" height="32.9"/>
	</g>
</g>
<g>
	<defs>
		<polygon id="SVGID_43_" points="71.5,219.1 73,220.2 61.5,235.6 60,234.5 		"/>
	</defs>
	<clipPath id="SVGID_44_">
		<use xlink:href="#SVGID_43_"  style="overflow:visible;"/>
	</clipPath>
	<g class="st21">
		<defs>
			<rect id="SVGID_45_" x="-458" y="-320.2" width="2000" height="3131"/>
		</defs>
		<clipPath id="SVGID_46_">
			<use xlink:href="#SVGID_45_"  style="overflow:visible;"/>
		</clipPath>
		<rect x="55" y="214.1" class="st22" width="23" height="26.5"/>
	</g>
</g>
<g>
	<defs>
		<polygon id="SVGID_47_" points="78.6,224.2 80.3,225 78.9,242 90.5,229.5 92.2,230.2 78.4,245.1 76.8,244.4 		"/>
	</defs>
	<clipPath id="SVGID_48_">
		<use xlink:href="#SVGID_47_"  style="overflow:visible;"/>
	</clipPath>
	<g class="st23">
		<defs>
			<rect id="SVGID_49_" x="-458" y="-320.2" width="2000" height="3131"/>
		</defs>
		<clipPath id="SVGID_50_">
			<use xlink:href="#SVGID_49_"  style="overflow:visible;"/>
		</clipPath>
		<rect x="71.8" y="219.2" class="st24" width="25.4" height="30.9"/>
	</g>
</g>
<g>
	<defs>
		<polygon id="SVGID_51_" points="99.2,231.9 110.5,233.3 110.2,235.1 100.8,233.9 100,240.1 107,241 106.8,242.8 99.8,241.9 
			98.8,249.3 109.1,250.6 108.9,252.4 96.7,250.9 		"/>
	</defs>
	<clipPath id="SVGID_52_">
		<use xlink:href="#SVGID_51_"  style="overflow:visible;"/>
	</clipPath>
	<g class="st25">
		<defs>
			<rect id="SVGID_53_" x="-458" y="-320.2" width="2000" height="3131"/>
		</defs>
		<clipPath id="SVGID_54_">
			<use xlink:href="#SVGID_53_"  style="overflow:visible;"/>
		</clipPath>
		<rect x="91.7" y="226.9" class="st26" width="23.7" height="30.6"/>
	</g>
</g>
<g>
	<defs>
		<path id="SVGID_55_" d="M139.7,242.7c0,1.3-0.2,2.3-0.6,3.2c-0.5,1.1-1.2,2.1-2.1,2.9c-0.9,0.8-1.9,1.3-3.1,1.5
			c-1.4,0.3-2.8,0.2-4.1-0.3c-1.3-0.5-2.5-1.4-3.5-2.7c-1-1.3-1.8-3-2.2-5c-0.4-1.8-0.5-3.5-0.2-5.2c0.3-1.7,0.9-3.1,1.9-4.1
			c1-1,2.2-1.7,3.6-2c1.3-0.3,2.4-0.3,3.4,0c1,0.3,2,0.8,3,1.6c0.7,0.6,1.3,1.4,1.9,2.5l-1.9,0.8c-0.7-1.4-1.6-2.3-2.6-2.8
			c-1-0.5-2.1-0.6-3.2-0.4c-1.6,0.4-2.7,1.2-3.4,2.7c-0.9,1.7-1,3.9-0.4,6.5c0.6,2.7,1.7,4.7,3.3,5.9c1.3,1,2.7,1.3,4.2,1
			c0.9-0.2,1.7-0.6,2.3-1.2c0.6-0.6,1.1-1.3,1.4-2.2c0.2-0.6,0.3-1.4,0.3-2.3L139.7,242.7z"/>
	</defs>
	<clipPath id="SVGID_56_">
		<use xlink:href="#SVGID_55_"  style="overflow:visible;"/>
	</clipPath>
	<g class="st27">
		<defs>
			<rect id="SVGID_57_" x="-458" y="-320.2" width="2000" height="3131"/>
		</defs>
		<clipPath id="SVGID_58_">
			<use xlink:href="#SVGID_57_"  style="overflow:visible;"/>
		</clipPath>
		<rect x="118.7" y="225.7" class="st28" width="26" height="29.8"/>
	</g>
</g>
<g>
	<defs>
		<polygon id="SVGID_59_" points="143.1,226.7 152.9,221.1 153.8,222.7 145.6,227.4 148.7,232.8 154.8,229.4 155.8,231 149.6,234.5 
			153.3,240.9 162.3,235.8 163.3,237.4 152.6,243.4 		"/>
	</defs>
	<clipPath id="SVGID_60_">
		<use xlink:href="#SVGID_59_"  style="overflow:visible;"/>
	</clipPath>
	<g class="st29">
		<defs>
			<rect id="SVGID_61_" x="-458" y="-320.2" width="2000" height="3131"/>
		</defs>
		<clipPath id="SVGID_62_">
			<use xlink:href="#SVGID_61_"  style="overflow:visible;"/>
		</clipPath>
		<rect x="138.1" y="216.1" class="st30" width="30.2" height="32.3"/>
	</g>
</g>
<g>
	<defs>
		<polygon id="SVGID_63_" points="160,215.9 162,213.8 180.1,217.3 168.4,206.7 169.7,205.4 183.9,218.3 182.7,219.7 162.5,215.7 
			175.5,227.5 174.3,228.8 		"/>
	</defs>
	<clipPath id="SVGID_64_">
		<use xlink:href="#SVGID_63_"  style="overflow:visible;"/>
	</clipPath>
	<g class="st31">
		<defs>
			<rect id="SVGID_65_" x="-458" y="-320.2" width="2000" height="3131"/>
		</defs>
		<clipPath id="SVGID_66_">
			<use xlink:href="#SVGID_65_"  style="overflow:visible;"/>
		</clipPath>
		<rect x="155" y="200.4" class="st32" width="33.9" height="33.5"/>
	</g>
</g>
<g>
	<defs>
		<polygon id="SVGID_67_" points="173.8,198.9 179.6,186 181.3,186.8 178.8,192.3 194.7,199.5 193.9,201.2 178,194 175.5,199.6 		
			"/>
	</defs>
	<clipPath id="SVGID_68_">
		<use xlink:href="#SVGID_67_"  style="overflow:visible;"/>
	</clipPath>
	<g class="st33">
		<defs>
			<rect id="SVGID_69_" x="-458" y="-320.2" width="2000" height="3131"/>
		</defs>
		<clipPath id="SVGID_70_">
			<use xlink:href="#SVGID_69_"  style="overflow:visible;"/>
		</clipPath>
		<rect x="168.8" y="181" class="st34" width="30.9" height="25.1"/>
	</g>
</g>
<g>
	<defs>
		<polygon id="SVGID_71_" points="181.4,179 183,167.8 184.8,168.1 183.5,177.4 189.7,178.3 190.7,171.3 192.5,171.6 191.5,178.5 
			198.9,179.6 200.4,169.3 202.2,169.6 200.5,181.7 		"/>
	</defs>
	<clipPath id="SVGID_72_">
		<use xlink:href="#SVGID_71_"  style="overflow:visible;"/>
	</clipPath>
	<g class="st35">
		<defs>
			<rect id="SVGID_73_" x="-458" y="-320.2" width="2000" height="3131"/>
		</defs>
		<clipPath id="SVGID_74_">
			<use xlink:href="#SVGID_73_"  style="overflow:visible;"/>
		</clipPath>
		<rect x="176.4" y="162.8" class="st36" width="30.8" height="23.9"/>
	</g>
</g>
<g>
	<defs>
		<path id="SVGID_75_" d="M182.8,156.9l0-5.9c0-1.7,0.2-3,0.6-4c0.4-1,1-1.8,1.9-2.4c0.8-0.6,1.8-0.9,2.8-0.9c1.1,0,2.1,0.4,3,1.1
			c0.9,0.7,1.5,1.8,1.9,3.2l9.2-4.6l0,2l-8.8,4.5l0,5.3l8.8,0.1l0,1.9L182.8,156.9z M184.5,155l7.2,0l0-4.1c0-1-0.2-2-0.5-2.9
			c-0.2-0.7-0.6-1.3-1.2-1.6c-0.6-0.4-1.2-0.6-2-0.6c-1,0-1.9,0.4-2.6,1.1c-0.7,0.7-1,1.9-1,3.4L184.5,155z"/>
	</defs>
	<clipPath id="SVGID_76_">
		<use xlink:href="#SVGID_75_"  style="overflow:visible;"/>
	</clipPath>
	<g class="st37">
		<defs>
			<rect id="SVGID_77_" x="-458" y="-320.2" width="2000" height="3131"/>
		</defs>
		<clipPath id="SVGID_78_">
			<use xlink:href="#SVGID_77_"  style="overflow:visible;"/>
		</clipPath>
		<rect x="177.8" y="138.3" class="st38" width="29.4" height="23.7"/>
	</g>
</g>
<g>
	<defs>
		<path id="SVGID_79_" d="M106.7,125.3c-1.1-12-2.8-19.7-4.5-24.5c-2.4-6.5-4.5-7.7-5.3-8l-15.2,14.9c1.7,1.1,3.9,3.6,5.8,9.1
			c3.1,8.7,5.9,25.1,5.9,56.7v0.2l1.8-1.8c0.1-8.7,1.2-23.7,6.6-37.1C103.1,131.6,104.7,128.3,106.7,125.3"/>
	</defs>
	<clipPath id="SVGID_80_">
		<use xlink:href="#SVGID_79_"  style="overflow:visible;"/>
	</clipPath>
	<g class="st39">
		<defs>
			<rect id="SVGID_81_" x="-458" y="-320.2" width="2000" height="3131"/>
		</defs>
		<clipPath id="SVGID_82_">
			<use xlink:href="#SVGID_81_"  style="overflow:visible;"/>
		</clipPath>
		<rect x="76.6" y="87.9" class="st40" width="35" height="90.9"/>
	</g>
</g>
<g>
	<defs>
		<path id="SVGID_83_" d="M90.6,169c-0.3-28.4-2.9-43.4-5.7-51.2c-1.2-3.2-2.3-5.2-3.2-6.3l-3.1,3c0.9,0.4,1.8,1,2.6,2
			c1.3,1.6,2.5,4.1,3.6,8.1c2.1,8,3.8,21.8,3.8,46.2v0.3L90.6,169z"/>
	</defs>
	<clipPath id="SVGID_84_">
		<use xlink:href="#SVGID_83_"  style="overflow:visible;"/>
	</clipPath>
	<g class="st41">
		<defs>
			<rect id="SVGID_85_" x="-458" y="-320.2" width="2000" height="3131"/>
		</defs>
		<clipPath id="SVGID_86_">
			<use xlink:href="#SVGID_85_"  style="overflow:visible;"/>
		</clipPath>
		<rect x="73.6" y="106.5" class="st42" width="22" height="69.6"/>
	</g>
</g>
<g>
	<defs>
		<path id="SVGID_87_" d="M77.9,117.1c0.3,0.2,0.7,0.5,1.2,1c2.9,3.4,6.6,15.5,6.8,49l-1.4,1.4c-0.2-19.2-1.5-31-3.3-38.2
			c-1-3.8-2.1-6.3-3.4-8c-0.8-1.1-1.8-1.9-2.9-2.2L77.9,117.1z"/>
	</defs>
	<clipPath id="SVGID_88_">
		<use xlink:href="#SVGID_87_"  style="overflow:visible;"/>
	</clipPath>
	<g class="st43">
		<defs>
			<rect id="SVGID_89_" x="-458" y="-320.2" width="2000" height="3131"/>
		</defs>
		<clipPath id="SVGID_90_">
			<use xlink:href="#SVGID_89_"  style="overflow:visible;"/>
		</clipPath>
		<rect x="69.8" y="112.1" class="st44" width="20.9" height="61.5"/>
	</g>
</g>
<g>
	<defs>
		<path id="SVGID_91_" d="M112.8,149.6c-3.7,10.5-4.3,22.9-4.3,29.8c0,0.9,0,1.6,0,2.3l13.4-12.2c-0.2-1.5-0.5-5.3-0.5-10.3
			c0-7.4,0.7-17.4,3.8-26.2C119.3,136.2,115.4,142.4,112.8,149.6"/>
	</defs>
	<clipPath id="SVGID_92_">
		<use xlink:href="#SVGID_91_"  style="overflow:visible;"/>
	</clipPath>
	<g class="st45">
		<defs>
			<rect id="SVGID_93_" x="-458" y="-320.2" width="2000" height="3131"/>
		</defs>
		<clipPath id="SVGID_94_">
			<use xlink:href="#SVGID_93_"  style="overflow:visible;"/>
		</clipPath>
		<rect x="103.5" y="128" class="st46" width="26.8" height="58.7"/>
	</g>
</g>
<g>
	<defs>
		<path id="SVGID_95_" d="M148.7,130.8l13.8-12.5c-4.4-1.4-8.3-2.1-11.7-2.2l-5.6,5.1l-0.7-0.1c-2.5-0.4-4.8-0.6-7-0.6
			c-15.6,0-24,10.1-28.7,22.4c-4.7,12.3-5.4,26.7-5.4,34.2c0,0.8,0,1.6,0,2.2l2.4-2.2c0.1-7.2,1-18.4,4.4-28.4
			c3.8-11,11.3-20.8,24.7-20.7C139.1,128,143.6,128.9,148.7,130.8"/>
	</defs>
	<clipPath id="SVGID_96_">
		<use xlink:href="#SVGID_95_"  style="overflow:visible;"/>
	</clipPath>
	<g class="st47">
		<defs>
			<rect id="SVGID_97_" x="-458" y="-320.2" width="2000" height="3131"/>
		</defs>
		<clipPath id="SVGID_98_">
			<use xlink:href="#SVGID_97_"  style="overflow:visible;"/>
		</clipPath>
		<rect x="98.4" y="111.1" class="st48" width="69.1" height="73.2"/>
	</g>
</g>
<g>
	<defs>
		<path id="SVGID_99_" d="M97.9,176.2l2.8-2.6c0.2-8.1,1.3-20.5,5.6-31.7c4.8-12.8,14.3-24.2,31.3-24.2c2.1,0,4.4,0.2,6.8,0.5
			l13.4-12.2c-1.6-0.2-3.2-0.3-4.7-0.3c-3.7,0-7,0.5-10,1.4l-3.3,3c-0.1,0-0.7,0-0.8,0c-19,0-29,11.6-34.7,25.6
			c-5.6,13.9-6.4,30.1-6.4,38.1C97.9,174.8,97.9,175.6,97.9,176.2"/>
	</defs>
	<clipPath id="SVGID_100_">
		<use xlink:href="#SVGID_99_"  style="overflow:visible;"/>
	</clipPath>
	<g class="st49">
		<defs>
			<rect id="SVGID_101_" x="-458" y="-320.2" width="2000" height="3131"/>
		</defs>
		<clipPath id="SVGID_102_">
			<use xlink:href="#SVGID_101_"  style="overflow:visible;"/>
		</clipPath>
		<rect x="92.9" y="100.9" class="st50" width="69.9" height="80.3"/>
	</g>
</g>
<g>
	<defs>
		<path id="SVGID_103_" d="M122.9,110.8c4.5-2,9.8-3.2,15.9-3.2l13-11.8c-9.6,0.6-16.7,3.9-22.1,8.8L122.9,110.8z"/>
	</defs>
	<clipPath id="SVGID_104_">
		<use xlink:href="#SVGID_103_"  style="overflow:visible;"/>
	</clipPath>
	<g class="st51">
		<defs>
			<rect id="SVGID_105_" x="-458" y="-320.2" width="2000" height="3131"/>
		</defs>
		<clipPath id="SVGID_106_">
			<use xlink:href="#SVGID_105_"  style="overflow:visible;"/>
		</clipPath>
		<rect x="117.9" y="90.8" class="st52" width="38.9" height="25"/>
	</g>
</g>
</svg>
