<?xml version="1.0" encoding="UTF-8"?>
<svg width="92px" height="92px" viewBox="0 0 92 92" version="1.1" xmlns="http://www.w3.org/2000/svg" xmlns:xlink="http://www.w3.org/1999/xlink">
    <!-- Generator: Sketch 54.1 (76490) - https://sketchapp.com -->
    <title>icon_researcher</title>
    <desc>Created with Sketch.</desc>
    <g id="Homepage-Selected" stroke="none" stroke-width="1" fill="none" fill-rule="evenodd">
        <g id="icon_researcher">
            <path d="M46,92 C71.4050985,92 92,71.4050985 92,46 C92,20.5949015 71.4050985,0 46,0 C20.5949015,0 0,20.5949015 0,46 C0,71.4050985 20.5949015,92 46,92 Z" id="Path" fill="#D8521E" fill-rule="nonzero"></path>
            <path d="M46,86 C23.90861,86 6,68.09139 6,46 C6,23.90861 23.90861,6 46,6 C68.09139,6 86,23.90861 86,46 C86,68.09139 68.09139,86 46,86 Z M46,84.5 C67.2629629,84.5 84.5,67.2629629 84.5,46 C84.5,24.7370371 67.2629629,7.5 46,7.5 C24.7370371,7.5 7.5,24.7370371 7.5,46 C7.5,67.2629629 24.7370371,84.5 46,84.5 Z" id="Shape" fill="#FFFFFF" fill-rule="nonzero"></path>
            <path d="M29.0000355,65.7153383 L29.0000355,24.9998328 L60.7289066,24.9998328 L60.7289066,65.7153383 L29.0000355,65.7153383 Z M57.755269,56.4765494 L51.7879728,50.4444856 C52.3133735,49.7782244 52.7550181,49.0424467 53.0996383,48.2542328 L57.2690808,48.2542328 L57.2690808,47.2592606 L53.4731645,47.2592606 C53.7721749,46.3106328 53.9347115,45.3013272 53.9347115,44.2540383 C53.9347115,43.8080328 53.902607,43.3696717 53.8459798,42.938955 L57.2690808,42.938955 L57.2690808,41.9439828 L53.6637777,41.9439828 C53.2781679,40.3126106 52.4949833,38.8355606 51.4214362,37.6237967 L57.2690808,37.6237967 L57.2690808,36.628705 L50.4049902,36.628705 C48.6854432,35.1696911 46.4686906,34.28843 44.0506627,34.28843 C41.6326348,34.28843 39.4158822,35.1696911 37.6964537,36.628705 L32.4597429,36.628705 L32.4597429,37.6237967 L36.6800077,37.6237967 C35.6064606,38.8355606 34.823276,40.3126106 34.4376662,41.9439828 L32.4597429,41.9439828 L32.4597429,42.938955 L34.2553456,42.938955 C34.1987185,43.3696717 34.1666139,43.8080328 34.1666139,44.2540383 C34.1666139,45.3010883 34.3285582,46.3103939 34.6269763,47.2592606 L32.4597429,47.2592606 L32.4597429,48.2542328 L35.0007394,48.2542328 C36.5322794,51.7627939 40.0114153,54.2196467 44.0506627,54.2196467 C46.0895965,54.2196467 47.9862516,53.5936383 49.5617429,52.5226994 L55.611492,58.6380161 L57.755269,56.4765494 Z M32.4597429,32.3085189 L57.2691993,32.3085189 L57.2691993,31.3134272 L32.4597429,31.3134272 L32.4597429,32.3085189 Z M44.0506627,37.3453717 C47.829046,37.3453717 50.9029066,40.4444772 50.9029066,44.2540383 C50.9029066,48.06348 47.829046,51.1628244 44.0506627,51.1628244 C40.2723979,51.1628244 37.1985373,48.06348 37.1985373,44.2540383 C37.1985373,40.4444772 40.2723979,37.3453717 44.0506627,37.3453717 Z M62.9219659,67.9264939 L30.64483,67.9264939 L30.64483,66.8210356 L61.8254362,66.8210356 L61.8254362,26.6583189 L62.9219659,26.6583189 L62.9219659,67.9264939 Z" id="Shape" fill="#FFFFFF"></path>
        </g>
    </g>
</svg>