<?xml version="1.0" encoding="UTF-8"?>
<svg width="92px" height="92px" viewBox="0 0 92 92" version="1.1" xmlns="http://www.w3.org/2000/svg" xmlns:xlink="http://www.w3.org/1999/xlink">
    <!-- Generator: Sketch 54.1 (76490) - https://sketchapp.com -->
    <title>icon_educator</title>
    <desc>Created with Sketch.</desc>
    <g id="Homepage-Selected" stroke="none" stroke-width="1" fill="none" fill-rule="evenodd">
        <g id="icon_educator">
            <path d="M46,92 C71.4050985,92 92,71.4050985 92,46 C92,20.5949015 71.4050985,0 46,0 C20.5949015,0 0,20.5949015 0,46 C0,71.4050985 20.5949015,92 46,92 Z" id="Path" fill="#D8521E" fill-rule="nonzero"></path>
            <path d="M46,86 C23.90861,86 6,68.09139 6,46 C6,23.90861 23.90861,6 46,6 C68.09139,6 86,23.90861 86,46 C86,68.09139 68.09139,86 46,86 Z M46,84.5 C67.2629629,84.5 84.5,67.2629629 84.5,46 C84.5,24.7370371 67.2629629,7.5 46,7.5 C24.7370371,7.5 7.5,24.7370371 7.5,46 C7.5,67.2629629 24.7370371,84.5 46,84.5 Z" id="Shape" fill="#FFFFFF" fill-rule="nonzero"></path>
            <path d="M72.8851553,46.0622969 L72.6030259,46.0622969 L74.2846626,48.8472457 L70.5173265,48.8472457 L72.1986,46.0622969 L71.9164706,46.0622969 L71.9164706,43.2097372 L72.8851553,42.816256 L72.8851553,46.0622969 Z M45.9864747,28.9999761 L74.972671,40.7738328 L45.9864747,52.54757 L17.0000363,40.7738328 L45.9864747,28.9999761 Z M62.7369716,46.9382526 L62.7369716,57.4236792 C62.7369716,61.0065802 55.2375353,63.9111024 45.9864747,63.9111024 C36.735172,63.9111024 29.2357357,61.0065802 29.2357357,57.4236792 L29.2357357,46.9382526 L45.9864747,53.7421092 L62.7369716,46.9382526 Z" id="Shape" fill="#FFFFFF"></path>
        </g>
    </g>
</svg>