<?xml version="1.0" encoding="UTF-8"?>
<svg width="92px" height="92px" viewBox="0 0 92 92" version="1.1" xmlns="http://www.w3.org/2000/svg" xmlns:xlink="http://www.w3.org/1999/xlink">
    <!-- Generator: Sketch 54.1 (76490) - https://sketchapp.com -->
    <title>icon_recordsdonor</title>
    <desc>Created with Sketch.</desc>
    <g id="Homepage-Selected" stroke="none" stroke-width="1" fill="none" fill-rule="evenodd">
        <g id="icon_recordsdonor">
            <path d="M46,92 C71.4050985,92 92,71.4050985 92,46 C92,20.5949015 71.4050985,0 46,0 C20.5949015,0 0,20.5949015 0,46 C0,71.4050985 20.5949015,92 46,92 Z" id="Path" fill="#D8521E" fill-rule="nonzero"></path>
            <path d="M46,86 C23.90861,86 6,68.09139 6,46 C6,23.90861 23.90861,6 46,6 C68.09139,6 86,23.90861 86,46 C86,68.09139 68.09139,86 46,86 Z M46,84.5 C67.2629629,84.5 84.5,67.2629629 84.5,46 C84.5,24.7370371 67.2629629,7.5 46,7.5 C24.7370371,7.5 7.5,24.7370371 7.5,46 C7.5,67.2629629 24.7370371,84.5 46,84.5 Z" id="Shape" fill="#FFFFFF" fill-rule="nonzero"></path>
            <path d="M38.4342548,27.7938922 L38.4342548,26 L67.1432692,26 L67.1432692,27.7938922 L38.4342548,27.7938922 Z M38.4342548,32.445509 L38.4342548,30.6516168 L67.1432692,30.6516168 L67.1432692,32.445509 L38.4342548,32.445509 Z M38.4342548,37.0971257 L38.4342548,35.3032335 L67.1432692,35.3032335 L67.1432692,37.0971257 L38.4342548,37.0971257 Z M38.4342548,41.7488623 L38.4342548,39.9549701 L67.1432692,39.9549701 L67.1432692,41.7488623 L38.4342548,41.7488623 Z M70.6210337,48.911976 C71.1165865,49.8324551 70.9683894,50.9238323 70.334375,51.6785629 C70.2597356,51.7886228 70.1563702,51.8943713 70.0185096,51.9941317 C70.0175481,51.9949701 70.0164663,51.9956886 70.0153846,51.9964072 C69.9308894,52.0661078 69.8390625,52.1288623 69.7436298,52.1881437 C65.6669471,55.0124551 55.150601,59.8439521 53.059375,59.8617964 C50.7574519,60.0458683 42.388101,57.5397605 39.4603365,58.0743713 C36.5314904,58.608982 34.8135817,59.7669461 34.8135817,59.7669461 L29.503125,49.7801198 C29.503125,49.7801198 30.5496394,49.1621557 30.8765625,48.9257485 C33.0954327,47.320479 34.6533654,45.6027545 39.5748798,45.6336527 C44.4980769,45.6632335 45.0189904,47.7590419 53.9742788,48.9104192 C55.0501202,49.0487425 56.196274,49.1851497 56.9861779,49.5053892 C57.096274,49.5475449 57.2028846,49.5984431 57.305649,49.657006 C57.3324519,49.6718563 57.3600962,49.6861078 57.3854567,49.7016766 C57.3939904,49.7069461 57.4022837,49.7132934 57.4106971,49.7186826 C57.4264423,49.7287425 57.4418269,49.7394012 57.4572115,49.7498204 C57.4820913,49.7669461 57.506851,49.7847904 57.5314904,49.8035928 C57.8002404,50.0010778 58.0316106,50.2572455 58.2,50.5699401 C58.4407452,51.0172455 58.5174279,51.5076647 58.453125,51.9746108 C58.3377404,52.5513772 57.9746394,53.074491 57.415024,53.3734132 C57.2793269,53.445988 57.1282452,53.5043114 56.966226,53.5467066 L56.9186298,53.5626347 C56.2640625,53.7810778 55.4879808,53.6893413 54.8644231,53.6155689 L44.6058894,52.4525749 C44.4530048,52.4353293 44.3356971,52.4286228 44.2478365,52.4317365 C44.0259615,52.4402395 43.8530048,52.6261078 43.8615385,52.8471856 C43.8699519,53.0681437 44.0591346,53.2392814 44.2783654,53.2320958 C44.2990385,53.2313772 44.3649038,53.2312575 44.515024,53.2482635 L54.5954327,54.3905389 L54.7698317,54.4108982 C55.1115385,54.4512575 55.5180288,54.4992814 55.9445913,54.4992814 C56.3492788,54.4992814 56.7721154,54.4560479 57.1741587,54.3217964 C57.1801683,54.3197605 57.1861779,54.3177246 57.1911058,54.3158084 C57.4064904,54.2578443 57.6096154,54.1783234 57.7951923,54.0791617 C59.0278846,53.420479 59.5758413,51.9810778 59.1563702,50.6997605 C60.3713942,50.2603593 65.3211538,48.4762874 67.5069712,47.7776048 C67.5189904,47.7737725 67.5293269,47.7706587 67.5409856,47.7670659 C68.694351,47.3286228 70.0222356,47.7992814 70.6210337,48.911976 Z M28.24375,49.2577246 L34.8414663,61.6622754 C35.0735577,62.0992814 34.9057692,62.6403593 34.4676683,62.8716168 L28.9155048,65.8041916 C28.4769231,66.0359281 27.933774,65.8687425 27.7016827,65.4328144 L21.1045673,53.0277844 C20.872476,52.5913772 21.0397837,52.0495808 21.4777644,51.8183234 L27.0293269,48.8862275 C27.4685096,48.6546108 28.0111779,48.8210778 28.24375,49.2577246 Z" id="Shape" fill="#FFFFFF"></path>
        </g>
    </g>
</svg>