<?xml version="1.0" encoding="UTF-8"?>
<svg width="92px" height="92px" viewBox="0 0 92 92" version="1.1" xmlns="http://www.w3.org/2000/svg" xmlns:xlink="http://www.w3.org/1999/xlink">
    <!-- Generator: Sketch 54.1 (76490) - https://sketchapp.com -->
    <title>icon_archivist</title>
    <desc>Created with Sketch.</desc>
    <g id="Homepage-Selected" stroke="none" stroke-width="1" fill="none" fill-rule="evenodd">
        <g id="icon_archivist">
            <path d="M46,92 C71.4050985,92 92,71.4050985 92,46 C92,20.5949015 71.4050985,0 46,0 C20.5949015,0 0,20.5949015 0,46 C0,71.4050985 20.5949015,92 46,92 Z" id="Path" fill="#D8521E" fill-rule="nonzero"></path>
            <path d="M46,86 C23.90861,86 6,68.09139 6,46 C6,23.90861 23.90861,6 46,6 C68.09139,6 86,23.90861 86,46 C86,68.09139 68.09139,86 46,86 Z M46,84.5 C67.2629629,84.5 84.5,67.2629629 84.5,46 C84.5,24.7370371 67.2629629,7.5 46,7.5 C24.7370371,7.5 7.5,24.7370371 7.5,46 C7.5,67.2629629 24.7370371,84.5 46,84.5 Z" id="Shape" fill="#FFFFFF" fill-rule="nonzero"></path>
            <path d="M54.0465,64.8149701 L54.0465,46.431497 L67.9697198,46.431497 L67.9697198,64.8149701 C67.9697198,65.417006 67.4771374,65.9049102 66.8695989,65.9049102 L55.1466209,65.9049102 C54.5389615,65.9049102 54.0465,65.417006 54.0465,64.8149701 Z M66.8695989,26 C67.4771374,26 67.9697198,26.488024 67.9697198,27.0899401 L67.9697198,45.4734132 L54.0465,45.4734132 L54.0465,27.0899401 C54.0465,26.488024 54.5389615,26 55.1466209,26 L66.8695989,26 Z M61.0080495,53.1347305 C58.7011923,53.1347305 56.8310714,54.9875449 56.8310714,57.2730539 C56.8310714,59.5585629 58.7011923,61.4112575 61.0080495,61.4112575 C63.3150275,61.4112575 65.1850275,59.5585629 65.1850275,57.2730539 C65.1850275,54.9875449 63.3150275,53.1347305 61.0080495,53.1347305 Z M57.7758626,42.6526946 L64.2402363,42.6526946 L64.2402363,31.8143713 L57.7758626,31.8143713 L57.7758626,42.6526946 Z M51.8463791,26 C52.4537967,26 52.9465,26.488024 52.9465,27.0899401 L52.9465,45.4734132 L39.0232802,45.4734132 L39.0232802,27.0899401 C39.0232802,26.488024 39.5157418,26 40.1234011,26 L51.8463791,26 Z M39.0232802,64.8149701 L39.0232802,46.431497 L52.9465,46.431497 L52.9465,64.8149701 C52.9465,65.417006 52.4537967,65.9049102 51.8463791,65.9049102 L40.1234011,65.9049102 C39.5157418,65.9049102 39.0232802,65.417006 39.0232802,64.8149701 Z M42.7526429,42.6526946 L49.2170165,42.6526946 L49.2170165,31.8143713 L42.7526429,31.8143713 L42.7526429,42.6526946 Z M45.9848297,53.1347305 C43.6779725,53.1347305 41.8078516,54.9875449 41.8078516,57.2730539 C41.8078516,59.5585629 43.6779725,61.4112575 45.9848297,61.4112575 C48.2916868,61.4112575 50.1616868,59.5585629 50.1616868,57.2730539 C50.1616868,54.9875449 48.2916868,53.1347305 45.9848297,53.1347305 Z M36.8230385,26 C37.4305769,26 37.9231593,26.488024 37.9231593,27.0899401 L37.9231593,45.4734132 L24.0000604,45.4734132 L24.0000604,46.431497 L37.9231593,46.431497 L37.9231593,64.8149701 C37.9231593,65.417006 37.4305769,65.9049102 36.8230385,65.9049102 L25.1000604,65.9049102 C24.492522,65.9049102 24.0000604,65.417006 24.0000604,64.8149701 L24.0000604,27.0899401 C24.0000604,26.488024 24.492522,26 25.1000604,26 L36.8230385,26 Z M27.7294231,42.6526946 L34.1937967,42.6526946 L34.1937967,31.8143713 L27.7294231,31.8143713 L27.7294231,42.6526946 Z M30.9616099,53.1347305 C28.6547527,53.1347305 26.7846319,54.9875449 26.7846319,57.2730539 C26.7846319,59.5585629 28.6547527,61.4112575 30.9616099,61.4112575 C33.268467,61.4112575 35.138467,59.5585629 35.138467,57.2730539 C35.138467,54.9875449 33.268467,53.1347305 30.9616099,53.1347305 Z" id="Shape" fill="#FFFFFF"></path>
        </g>
    </g>
</svg>